<svg xmlns="http://www.w3.org/2000/svg" viewBox="0 0 785.66 187.27"><defs><style>.cls-1{fill:#f48120;}.cls-2{fill:#096db0;}.cls-3{fill:#fefefe;}.cls-4{fill:#fdfefe;}.cls-5{fill:#fdfdfe;}.cls-6{fill:#fcfcfd;}.cls-7{fill:#fafbfc;}</style></defs><title>Asset 1</title><g id="Layer_2" data-name="Layer 2"><g id="Layer_1-2" data-name="Layer 1"><path class="cls-1" d="M692.91,150.22l73.44.21a15.58,15.58,0,0,1,5.45.67c-5.95.43-11.89,1-17.84,1.29-37.86,2.12-75.73,4.13-113.59,6.3-43.33,2.49-86.65,5.15-130,7.64-31.71,1.82-63.44,3.43-95.15,5.24-43,2.47-86,5.09-129,7.56-32.38,1.87-64.76,3.59-97.14,5.42-16.27.92-32.55,2.91-48.8,2.71C94.69,186.7,51,177,9.77,157.08c-3.44-1.66-7.32-3.07-9.46-6.72A5.49,5.49,0,0,1,4.42,149c9.24-.23,18.49-.15,27.74-.08,1.64,0,3.32.11,4.65,1.33h68.53a5.62,5.62,0,0,1,3.69-1.29c6.32-.22,12.63,0,19,0a5.19,5.19,0,0,1,3.68,1.28h60.8a5.21,5.21,0,0,1,3.64-1.29c6.4-.22,12.81,0,19.22,0a5.05,5.05,0,0,1,3.63,1.29l27.71,0a8.11,8.11,0,0,1,5.18-1.4c22.86,0,45.73-.22,68.59.1,4.85-.15,9.71-.16,14.57,0,23.44-.33,46.87-.09,70.3-.13a9.68,9.68,0,0,1,5.72,1.42l29,0c6-2.72,12.32-.92,18.49-1.34,2.25-.16,4.65-.28,6.61,1.34H498c1.66-1.45,3.7-1.24,5.68-1.28,10.6-.19,21.2-.16,31.8,0,5.42-.15,10.85-.18,16.27,0,6.28-.28,12.55-.12,18.82-.08,1.8,0,3.67,0,5.15,1.33h2.38a114.84,114.84,0,0,1,39.23,0h7.76c2.52-1.74,5.45-1.36,8.23-1.37q26.68-.12,53.38,0C688.87,148.84,691.11,148.64,692.91,150.22Z"/><path class="cls-2" d="M411,150.24l-76.27,0c-2-3.31-.12-4.57,2.84-5,4.28-.61,8.63-.85,12.81-2,6.43-1.76,7.94-4.2,6.24-10.59-4.1-15.43-8.41-30.81-12.56-46.23-.38-1.41-.6-3.24-2.27-3.6s-2.47,1.43-3.2,2.66c-7.26,12.13-14.9,24-22,36.28a38.89,38.89,0,0,0-3.51,8.79c-2,7.12-1.08,9.59,5.24,13.74,2.17,1.42,4.37,2.77,2.68,5.91l-74.38,0c-.55-3.65.51-5.24,4.69-5,10,.54,17.08-3.6,22-12.94,20.15-38,40.8-75.81,61.29-113.66,1.3-2.4,2.41-4.8,1.82-7.58-.75-3.6-2.5-6.14-6.73-5.9-2,.12-4,0-6,0s-2-1.25-2-2.68S322,.19,323.62.23c1,0,2,0,3,0,22.48,0,45,0,67.45.06,1.73,0,4.66-1.51,4.68,2.41s-3,2.21-4.73,2.71a27.8,27.8,0,0,1-5.43.64c-8,.67-13,4.76-16.77,12-8.44,16-17.77,31.58-26.73,47.34-1.06,1.86-2,3.77-3.1,5.71,2.47,1.48,4.26.3,6-.93l77.56-53.69c1.82-1.26,3.85-2.68,3.57-5-.32-2.64-2.87-3.46-5.1-4.16a33,33,0,0,0-6.28-1.51c-2.2-.23-2.1-1.52-2.17-3.09-.1-2.1,1-2.46,2.75-2.45q30,0,60,0c1.43,0,2.6.11,2.67,2.05s-.9,2.12-2.42,2.32c-4.28.56-8.54,1.26-12.8,2a56.45,56.45,0,0,0-24.19,9.83C422.53,30.1,403.15,43.32,383.8,56.59c-2.86,2-3.75,3.76-2.72,7.23,6.67,22.63,13.07,45.33,19.68,68,1.52,5.22,2.82,10.72,8.79,13.12C412.08,145.93,410.63,148.42,411,150.24Z"/><path class="cls-2" d="M575.76,150.22H551.89c-2.64-1.6-2.75-4.44-3.25-7-1.68-8.66-3.7-17.24-5.44-25.88-.29-1.43-.36-3.41-2.11-3.6s-2.15,1.81-2.6,3.16c-2.43,7.26-5.6,14.25-7.85,21.57-1.56,5.07-1.13,5.82,3.81,7.77,2,.79,4.16,1.45,1.48,4H498a2.11,2.11,0,0,1,2.35-2.5c6.9-.1,9.76-4.85,11.82-10.4q8.32-22.41,16.53-44.85c1.37-3.74,2.81-7.46,4-11.26,1.86-6,1-7.37-5-8.68-.74-.17-1.73.14-2-1.15.53-1.73,2.1-1.16,3.28-1.16,11.82,0,23.64-.12,35.45.19,10.75.28,16.56,4.22,18.64,11.83s-2.1,17.22-9.86,22.24a32.68,32.68,0,0,1-9.57,4.14c-2.5.65-3.59,1.7-2.92,4.5,2,8.38,3.84,16.83,5.78,25.24,1.08,4.71,2.54,9.07,8.57,9.39C577.24,147.86,576.33,149.19,575.76,150.22Z"/><path class="cls-2" d="M36.81,150.22l-36.5.14c-1.17-2.92,1.23-2.66,2.66-2.67,5.78,0,8.61-3.48,10.4-8.42,6.44-17.77,13-35.52,19.39-53.31,3.89-10.79,3.81-10.82-6-14.43.5-1.91,2.09-1.31,3.27-1.31,12.65,0,25.3,0,37.94.19,8.85.15,14.67,4,16.57,10.28,2,6.58-1.39,14.77-8.07,19.49A31.69,31.69,0,0,1,68,104.32c-2.84.93-5.73,1.69-9.35,2.74,2.85,1.31,5.23,2.29,7.51,3.48,8.91,4.6,12,13.14,7.85,22.29-5.2,11.5-15,15.8-26.86,16.67C43.72,149.76,40.21,149.21,36.81,150.22Z"/><path class="cls-2" d="M131.66,150.22H105.34c-11.07-6.21-15.74-17-13.46-31,3.73-22.94,24.71-45,47.51-50,23.53-5.15,39.82,11.64,32.85,34.77C165.83,125.27,152.93,141.6,131.66,150.22Z"/><path class="cls-2" d="M219,150.22H192.46c-10.77-6.31-15.36-16.29-13.61-29.61,3-22.64,24-45.82,46.46-51.17,24.88-5.93,41.55,11.43,33.76,35.81C252.44,126,239.6,141.72,219,150.22Z"/><path class="cls-2" d="M692.91,150.22H625.13c0-2,1.13-2.51,2.89-2.55,6.08-.13,9.25-4,11.19-9.14,5.22-13.84,10.34-27.71,15.49-41.57,1.91-5.14,4-10.23,5.66-15.45,2.08-6.52,1.18-7.76-5.59-9-.63-.11-1.33-.09-1.58-.94.86-2.08,2.77-1.35,4.31-1.35,18.49,0,37,0,55.48-.08,3.43,0,4.52.66,3.1,4.19-2.11,5.23-3.21,10.89-6,16-2-1.07-1.4-2.37-1.49-3.43-.49-5.6-3.73-9.69-9.12-11.19-5.54-1.55-11.24-1-16.89-1.12a2.47,2.47,0,0,0-2.6,1.83L669.49,105.2c6.12.59,11.66.21,17-1.91s8-7,11.3-11.26l1.31.91c-3.78,10.31-7.56,20.63-11.62,31.68-1.1-1.31-1.49-1.58-1.46-1.77.72-4,1.65-8.11-2.59-10.79-4.63-2.92-9.89-2.4-15-2.13-1.29.07-1.43,1.65-1.82,2.73-3.07,8.44-6.21,16.85-9.18,25.32-1.81,5.17-.47,7.13,5.1,7.31,13.52.43,25-4.4,34.79-13.64,1.43-1.36,2.42-3.65,5.91-3.2C699.64,136,696.28,143.11,692.91,150.22Z"/><path class="cls-2" d="M465.15,150.22h-25.1c-14.18-5.55-14.73-16.72-10.9-27.26,4.65-12.81,9.37-25.59,14.06-38.39.46-1.24,1-2.48,1.33-3.75,1.5-5.55.43-7.19-5.26-8.24-.79-.15-1.57-.36-2.34-.58-.12,0-.18-.25-.77-1.09h40c.06,1.19-.79,1.52-1.91,1.54-6.17.11-9.86,3.62-11.88,9C456.8,96.41,451.06,111.3,446,126.4c-5.35,15.81,5.29,20.77,17.76,18.64,6.6-1.13,11.39-5.17,15-10.67,3.9-5.89,6.15-12.51,8.58-19,3.58-9.66,7.07-19.35,10.59-29,3.76-10.3,3-11.92-7.15-15.34h26.82c-.05.35-.06.92-.15.93-8.58,1.32-12.17,7.4-14.93,14.8-5.34,14.31-10,28.91-16.23,42.86C482,139.19,475.25,146.45,465.15,150.22Z"/><path class="cls-2" d="M617.37,150.22H578.13c0-2,1.13-2.54,2.88-2.57,5.85-.13,9-3.75,10.88-8.75,5-13.2,9.85-26.44,14.74-39.66,2.07-5.61,4.18-11.2,6.11-16.85,2.46-7.22,1.53-8.66-6-9.9-.62-.1-1.33,0-1.73-1.57H644.1c0,.72-.37,1.4-1.08,1.4-7.59,0-10.62,5.19-12.83,11.24q-10,27.38-19.93,54.77c-2.39,6.64-1.72,7.75,5,9.19C616.84,147.86,618.37,148,617.37,150.22Z"/><path class="cls-2" d="M752.79,89.55A32.09,32.09,0,0,1,720.4,57.3a32.42,32.42,0,0,1,32.48-32.82,32.8,32.8,0,0,1,32.78,32.68A32.36,32.36,0,0,1,752.79,89.55Z"/><path class="cls-3" d="M321,150.23c.29-2.38-.32-3.84-2.94-4.83-6.55-2.5-8.39-6.52-6.76-13.41,1.36-5.74,4.1-10.87,7.1-15.85,6.53-10.82,13.14-21.58,19.71-32.38,1-1.56,1.69-3.39,4-3.17,2.58.26,2.22,2.55,2.67,4.18q6.7,24.24,13.33,48.5c1.68,6.2.1,9.07-6,10.89a47.46,47.46,0,0,1-13.77,2.05c-3.27,0-4.12,1.18-3.65,4Z"/><path class="cls-4" d="M535.93,150.22c1.7-2.19.06-2.31-1.55-2.67-6.56-1.48-7.34-2.72-5.08-9.24,2.82-8.15,5.9-16.2,8.88-24.29.58-1.57,1.09-3.09,3.36-2.89s2,1.85,2.28,3.23c2.26,10.53,4.5,21.07,6.79,31.59.32,1.45.85,2.85,1.28,4.27Z"/><path class="cls-4" d="M540.62,107.1c3.77-10.15,7.53-20.2,11.22-30.29.73-2,2.17-2.22,3.93-2.17,5.61.15,9.46,4.14,9.62,10C565.77,98.3,554.77,108.46,540.62,107.1Z"/><path class="cls-4" d="M33.71,145.33c-5.58,0-5.62,0-3.72-5.26,3.25-9,6.69-18,9.74-27.15,1-2.88,2.53-3.42,5.15-3.19,10.56.94,14.48,6.48,11.93,17C53.89,138.89,46,145.25,33.71,145.33Z"/><path class="cls-5" d="M42.85,104.9c3.45-9.56,6.78-19.06,10.32-28.48,1-2.74,7.28-2.81,10.48-.23a8.46,8.46,0,0,1,3.18,6.48C67.55,95.49,56.43,106,42.85,104.9Z"/><path class="cls-3" d="M109.46,133.75c2.81-18.55,7.83-36.32,19.6-51.47,4-5.1,8.85-9,15.84-9.13,5.6-.08,8.67,2.24,10,7.7,1.49,6,.23,11.93-1.22,17.71-4,15.94-9.58,31.14-21.6,43.06a19.53,19.53,0,0,1-3.88,3.09c-4.21,2.42-8.72,3.7-13.26,1.18S109.45,138.71,109.46,133.75Z"/><path class="cls-3" d="M196.59,133.64c3.12-19,8.12-37.29,20.67-52.6a21.39,21.39,0,0,1,10-7.17c9.18-2.87,15.33,1.42,15.34,11,0,12-3.89,23.16-8.5,34.08-3.51,8.34-8,16.06-14.55,22.42a20.32,20.32,0,0,1-3.42,2.88c-4.43,2.7-9.17,4.31-14.1,1.55C197.37,143.2,196.63,138.58,196.59,133.64Z"/><path class="cls-3" d="M733.69,76.41a26.54,26.54,0,0,1-6.19-29.7,27.57,27.57,0,0,1,27.76-17.1c11,.78,21.16,9.15,24.21,20,2.88,10.25-.45,21.62-7.85,26.77l-.77,0c-3,0-4.42-1.95-5.45-4.35A64.5,64.5,0,0,1,763,65.05c-2.15-7.29-2.13-7.3,4-11.73,2.71-2,4.6-4.42,4-8s-3.39-5.16-6.6-5.93c-5.7-1.36-11.54-.06-17.47-.9,2.42,2.16,2.14,4.72,1.44,7.29q-3.3,12.24-7.11,24.35c-1,3.28-2.79,6.08-6.78,6.31Z"/><path class="cls-6" d="M771.62,76.41c-8.19,10.91-27.32,10.9-37.93,0l-.08.09c7.53-1.8,11.25-1.93,17-.61.64.19.18-1.14.11-.48,0,.15-.08.17-.22.16-3.63-.33-4.1-2.8-3.52-5.61a59.45,59.45,0,0,1,2.76-9.6c.59-1.5,1.1-3.43,3.25-3.2,1.9.19,2.65,1.88,3.2,3.47a85.51,85.51,0,0,1,2.67,9.11c.82,3.6,2.68,5.46,6.56,5.41a20.82,20.82,0,0,1,6.25,1.34Z"/><path class="cls-2" d="M771.71,76.49c-12.34.26-12.28.24-15.76-11.39-.76-2.53-.33-7-3.14-6.94-2.35,0-2,4.66-3,7.17-.57,1.37-.67,2.93-1.26,4.28-1.44,3.32-.41,5.33,3,6.89H733.61c4.95-1.69,6.29-5.88,7.47-10.37,1.82-6.89,3.83-13.73,5.93-20.53,1-3.28,1.42-6.12-2.93-7.65a102.9,102.9,0,0,1,20,0c4.29.52,7.83,2.34,8.45,7s-1.62,8.68-6.1,10.3c-3.76,1.36-4.53,3.06-2.91,6.52a28.17,28.17,0,0,1,1.69,5.7C766.14,71.42,767.64,74.87,771.71,76.49Z"/><path class="cls-7" d="M763.58,45.79a9.8,9.8,0,0,1-3,7.44c-2,2-4.75,3.54-7.14,2.12-1.84-1.09.44-3.52.69-5.38a17.56,17.56,0,0,1,1.59-5.24c.86-1.76-.16-5.29,3.69-4.57C762.66,40.75,763.71,43,763.58,45.79Z"/></g></g></svg>