<?xml version="1.0" encoding="utf-8"?>
<svg width="229px" height="34px" viewbox="0 0 229 34" version="1.1" xmlns:xlink="http://www.w3.org/1999/xlink" xmlns="http://www.w3.org/2000/svg">
  <g id="memex-logo">
    <path d="M35.8827 0C32.1438 0 28.3185 1.05372 25.4123 3.16829C22.7076 1.15624 18.8431 0 14.6496 0C9.31589 0 2.75822 1.87388 0 6.19306L0 32.9167L8.06694 32.9167L8.06694 9.4193C9.5236 8.19709 11.6836 7.15585 14.6496 7.15585C18.7352 7.15585 21.259 8.22295 21.259 11.8914L21.259 32.9167L29.3 32.9167L29.3 10.3304C29.3 10.0344 29.2795 9.74558 29.2501 9.45942C30.7103 8.26128 32.9693 7.15585 35.8827 7.15585C39.9683 7.15585 42.4929 8.22295 42.4929 11.8914L42.4929 32.9167L50.5331 32.9167L50.5331 10.3304C50.5331 4.11147 43.7936 0 35.8827 0" transform="translate(0 0.07714844)" id="Fill-1" fill="#00472E" fill-rule="evenodd" stroke="none" />
    <path d="M35.8827 0C32.1429 0 28.3185 1.05372 25.4132 3.16829C22.7067 1.15624 18.8431 0 14.6496 0C9.315 0 2.75822 1.87388 0 6.19306L0 32.9167L8.06694 32.9167L8.06694 9.4193C9.5236 8.19709 11.6836 7.15585 14.6496 7.15585C18.7352 7.15585 21.259 8.22295 21.259 11.8914L21.259 32.9167L29.2991 32.9167L29.2991 10.3304C29.2991 10.0344 29.2795 9.74558 29.2501 9.45942C30.7095 8.26128 32.9693 7.15585 35.8827 7.15585C39.9683 7.15585 42.4929 8.22295 42.4929 11.8914L42.4929 32.9167L50.5322 32.9167L50.5322 10.3304C50.5322 4.11147 43.7936 0 35.8827 0" transform="translate(96.90234 0.07714844)" id="Fill-2" fill="#00472E" fill-rule="evenodd" stroke="none" />
    <path d="M18.5783 0C7.64973 0 0 6.71279 0 16.8872C0 27.0357 7.12911 33.7485 20.1393 33.7485C26.5926 33.7485 32.1866 32.2918 35.2319 31.3807L33.0986 25.604C30.1318 26.5151 25.1351 27.3736 20.1393 27.3736C12.4628 27.3736 8.0919 24.5369 8.0919 16.8872C8.0919 9.21159 11.4483 6.37492 18.5783 6.37492C24.7295 6.37492 28.0662 8.92008 28.8837 14.129L12.0474 14.129L12.0474 19.9057L37.1575 19.9057C37.1833 19.6195 37.1833 17.1733 37.1833 16.8872C37.1833 6.45248 29.5069 0 18.5783 0" transform="translate(54.878906 0)" id="Fill-3" fill="#00472E" fill-rule="evenodd" stroke="none" />
    <path d="M18.7878 8.17035L10.6433 0L0 0L13.1412 13.1671C15.0151 11.6836 16.8881 10.0184 18.7878 8.17035" transform="translate(186.02344 0.75390625)" id="Fill-4" fill="#D82336" fill-rule="evenodd" stroke="none" />
    <path d="M5.75089 0C3.82531 1.71609 1.92558 3.3564 0 4.89151L9.00388 13.8686L19.6463 13.8686L5.75089 0" transform="translate(209.26172 19.125977)" id="Fill-5" fill="#D82336" fill-rule="evenodd" stroke="none" />
    <path d="M77.2559 0.754186L66.6652 0.754186C63.2304 4.24074 59.5361 7.93589 56.2573 11.163C46.6552 20.5048 35.8827 27.3736 24.2775 27.3736C15.5607 27.3736 8.0919 24.5369 8.0919 16.8872C8.0919 9.21159 11.4483 6.37492 18.5792 6.37492C24.7197 6.37492 28.076 8.92453 28.8837 14.129L11.5267 14.129L11.5267 19.9057L37.1575 19.9057C37.1842 19.6195 37.1842 17.1733 37.1842 16.8872C37.1842 6.45248 29.5336 0 18.5792 0C7.64973 0 0 6.71279 0 16.8872C0 27.0357 9.88822 33.7485 24.2775 33.7485C39.0055 33.7485 49.0756 27.5554 62.8925 14.8582C67.7582 10.3821 73.1453 4.99581 77.2559 0.754186" transform="translate(151.46875 0)" id="Fill-6" fill="#D82336" fill-rule="evenodd" stroke="none" />
  </g>
</svg>